<svg width="32" height="32" viewBox="0 0 32 32" fill="none" xmlns="http://www.w3.org/2000/svg">
<g id="Group 36547">
<circle id="Ellipse 36" cx="16" cy="16" r="15.5" stroke="url(#paint0_linear_866_3396)"/>
<path id="Vector" d="M20.0077 11.1214L20.0083 11.1214C20.0558 11.1213 20.1038 11.1312 20.1498 11.1516L20.3522 10.6944L20.1498 11.1516C20.1959 11.172 20.2401 11.203 20.2789 11.2445C20.3178 11.2862 20.3503 11.3375 20.373 11.3962C20.3957 11.4551 20.4077 11.5192 20.4076 11.5846V11.5852C20.4076 11.8764 20.1983 12.049 20.0077 12.049C19.8177 12.049 19.6077 11.8751 19.6077 11.5852C19.6077 11.2953 19.8177 11.1214 20.0077 11.1214ZM22.9595 12.5817L22.9597 12.5853C23.0101 13.5443 23.0091 14.4972 23.0081 15.4717C23.008 15.6071 23.0079 15.7429 23.0079 15.8791C23.0079 16.032 23.0081 16.1842 23.0083 16.3358C23.0096 17.2937 23.0108 18.2298 22.9597 19.1721L22.9597 19.1721L22.9595 19.1766C22.9038 20.4089 22.647 21.4107 21.8817 22.2304C21.1241 23.0417 20.2041 23.3114 19.0724 23.3701L19.0724 23.3701L19.0683 23.3703C18.1759 23.4241 17.2892 23.4231 16.379 23.422C16.2526 23.4219 16.1257 23.4218 15.9983 23.4218C15.8712 23.4218 15.7446 23.4219 15.6184 23.422C14.7094 23.4231 13.8225 23.4241 12.9284 23.3703L12.9284 23.3703L12.9243 23.3701C11.7924 23.3114 10.8743 23.0436 10.115 22.2304C9.35145 21.4126 9.0929 20.4087 9.03719 19.1766L9.037 19.173C8.98662 18.2139 8.98758 17.2594 8.98857 16.2858C8.9887 16.1507 8.98884 16.0151 8.98884 15.8791C8.98884 15.7432 8.9887 15.6076 8.98857 15.4725C8.98758 14.4993 8.98662 13.5461 9.037 12.5853L9.03702 12.5853L9.03718 12.5817C9.09291 11.3494 9.34966 10.3476 10.115 9.52793C10.8725 8.71656 11.7926 8.44689 12.9243 8.38818L12.9243 8.3882L12.9284 8.38795C13.8208 8.33417 14.7075 8.3352 15.6177 8.33624C15.7441 8.33639 15.871 8.33654 15.9983 8.33654C16.1255 8.33654 16.2521 8.33639 16.3783 8.33624C17.2872 8.3352 18.1742 8.33417 19.0683 8.38795L19.0683 8.38797L19.0724 8.38818C20.2043 8.4469 21.1224 8.71467 21.8817 9.52793C22.6452 10.3456 22.9038 11.3496 22.9595 12.5817ZM22.3228 20.7992L22.3233 20.7977C22.5523 20.1804 22.627 19.2073 22.6537 18.3094C22.6735 17.6456 22.6673 16.9672 22.6624 16.4273C22.6606 16.2217 22.6589 16.0361 22.6589 15.8791C22.6589 15.7217 22.6606 15.5354 22.6625 15.329C22.6674 14.7892 22.6735 14.1113 22.654 13.4481C22.6275 12.5496 22.5533 11.5763 22.3255 10.9593L22.3246 10.9571C22.1655 10.5322 21.9663 10.2037 21.655 9.87019C21.3439 9.53489 21.0306 9.31769 20.6259 9.1438L20.6235 9.1428C20.032 8.89231 19.1076 8.81292 18.2696 8.78457C17.648 8.76355 17.0113 8.77019 16.5068 8.77545C16.3148 8.77745 16.142 8.77926 15.9965 8.77926C15.851 8.77926 15.6781 8.77745 15.4861 8.77545C14.9817 8.77019 14.3449 8.76355 13.7234 8.78457C12.8854 8.81292 11.9609 8.89231 11.3694 9.1428L11.3694 9.1428L11.3671 9.14381C10.9596 9.31883 10.6498 9.53862 10.3397 9.86836C10.0264 10.2015 9.8271 10.5331 9.6683 10.9571L9.66829 10.9571L9.66749 10.9593C9.43967 11.5763 9.36546 12.5496 9.33896 13.4481C9.3194 14.1113 9.32557 14.7892 9.33048 15.329C9.33236 15.5354 9.33405 15.7217 9.33405 15.8791C9.33405 16.0366 9.33236 16.2229 9.33048 16.4293C9.32557 16.9689 9.3194 17.6464 9.33896 18.3095C9.36547 19.2078 9.43969 20.1809 9.66738 20.7987L9.6683 20.8012C9.82741 21.2261 10.0266 21.5545 10.3379 21.888C10.6489 22.2234 10.9623 22.4406 11.3671 22.6145L11.3694 22.6155C11.9609 22.866 12.8854 22.9454 13.7234 22.9737C14.3449 22.9947 14.9817 22.9881 15.4861 22.9828C15.6781 22.9808 15.851 22.979 15.9965 22.979C16.1415 22.979 16.3137 22.9808 16.505 22.9828C17.0096 22.9881 17.6468 22.9947 18.2688 22.9735C19.1064 22.9449 20.0307 22.865 20.6224 22.6131L20.624 22.6125C21.0298 22.4381 21.3404 22.2208 21.6519 21.8873C21.9649 21.5544 22.164 21.223 22.3228 20.7992ZM12.6431 15.8791C12.6431 13.8386 14.1719 12.2522 15.9965 12.2522C17.821 12.2522 19.3499 13.8386 19.3499 15.8791C19.3499 17.9197 17.821 19.5061 15.9965 19.5061C14.1719 19.5061 12.6431 17.9197 12.6431 15.8791ZM12.992 15.8791C12.992 17.5994 14.3095 19.0614 15.9965 19.0614C17.6834 19.0614 19.0009 17.5994 19.0009 15.8791C19.0009 14.1589 17.6834 12.6969 15.9965 12.6969C14.3095 12.6969 12.992 14.1589 12.992 15.8791ZM22.2472 22.5716C23.1283 21.6279 23.4008 20.487 23.459 19.1992L8.53769 12.5591C8.48655 13.5343 8.48755 14.5017 8.48856 15.4736C8.4887 15.6087 8.48884 15.7439 8.48884 15.8791C8.48884 16.0144 8.4887 16.1496 8.48856 16.2847C8.48755 17.257 8.48655 18.2258 8.53769 19.1992C8.59593 20.487 8.87023 21.6299 9.74951 22.5716C10.6307 23.5153 11.6959 23.8071 12.8983 23.8694C13.8089 23.9242 14.7122 23.9231 15.6197 23.9221C15.7458 23.9219 15.872 23.9218 15.9983 23.9218C16.1249 23.9218 16.2514 23.9219 16.3777 23.9221C17.2864 23.9231 18.1895 23.9242 19.0983 23.8694C20.3008 23.8071 21.3679 23.5133 22.2472 22.5716Z" fill="#FF9E00" stroke="url(#paint1_linear_866_3396)"/>
</g>
<defs>
<linearGradient id="paint0_linear_866_3396" x1="16" y1="0" x2="16" y2="32" gradientUnits="userSpaceOnUse">
<stop stop-color="#F8F744"/>
<stop offset="1" stop-color="#E8F844"/>
</linearGradient>
<linearGradient id="paint1_linear_866_3396" x1="15.9985" y1="7.83594" x2="15.9985" y2="23.9224" gradientUnits="userSpaceOnUse">
<stop stop-color="#F8F744"/>
<stop offset="1" stop-color="#E8F844"/>
</linearGradient>
</defs>
</svg>
